<mxfile host="app.diagrams.net" modified="2024-02-06T18:56:34.650Z" agent="Mozilla/5.0 (Windows NT 10.0; Win64; x64) AppleWebKit/537.36 (KHTML, like Gecko) Chrome/121.0.0.0 Safari/537.36 Edg/121.0.0.0" version="23.1.1" etag="Cx4zn4I9Iy8w9tbXXy5w" type="github">
  <diagram name="PÃ¡gina-1" id="EkY_3QKVk9IVOYR79HZ_">
    <mxGraphModel>
      <root>
        <mxCell id="0" />
        <mxCell id="1" parent="0" />
      </root>
    </mxGraphModel>
  </diagram>
</mxfile>
